<?xml version="1.0" standalone="no"?>
<!DOCTYPE svg PUBLIC "-//W3C//DTD SVG 20010904//EN"
 "http://www.w3.org/TR/2001/REC-SVG-20010904/DTD/svg10.dtd">
<svg version="1.0" xmlns="http://www.w3.org/2000/svg"
 width="512.000000pt" height="512.000000pt" viewBox="0 0 512.000000 512.000000"
 preserveAspectRatio="xMidYMid meet">

<g transform="translate(0.000000,512.000000) scale(0.100000,-0.100000)"
fill="#000000" stroke="none">
<path d="M2447 4806 c-86 -32 -91 -46 -97 -271 l-5 -189 -100 -17 c-738 -122
-1348 -636 -1588 -1339 -67 -194 -97 -365 -104 -581 -11 -328 42 -605 171
-900 188 -426 547 -793 976 -998 932 -444 2048 -113 2593 769 487 790 363
1825 -298 2483 -52 52 -115 110 -140 128 -24 19 -45 38 -45 43 0 5 28 57 61
115 68 118 81 169 55 219 -20 38 -51 61 -188 140 -92 53 -113 62 -156 62 -69
0 -97 -26 -173 -159 l-61 -107 -122 41 c-68 23 -173 52 -234 65 l-111 23 -3
193 c-3 176 -5 195 -24 220 -47 63 -61 68 -222 71 -108 3 -157 0 -185 -11z
m448 -981 c665 -150 1150 -711 1194 -1380 18 -280 -34 -545 -154 -786 -213
-426 -593 -718 -1069 -821 -149 -32 -446 -32 -596 1 -147 31 -236 63 -375 130
-381 186 -673 533 -790 937 -44 151 -58 258 -58 429 0 422 153 788 453 1085
198 195 432 328 699 395 144 37 219 44 406 41 141 -3 190 -8 290 -31z"/>
<path d="M3125 3220 c-30 -12 -51 -37 -271 -318 l-200 -257 -70 3 c-130 7
-237 -56 -294 -171 -40 -81 -47 -147 -25 -222 44 -153 175 -245 329 -233 166
14 290 148 289 313 0 38 -6 83 -12 99 -7 17 -8 33 -3 40 5 6 105 135 223 285
l213 275 4 58 c4 56 3 59 -36 98 -34 35 -45 40 -83 39 -24 0 -53 -4 -64 -9z"/>
</g>
</svg>
